# xmcd CD database file
#
# Track frame offsets:
#	150
#	26050
#	47407
#	68167
#	90310
#	111590
#	132032
#	173315
#	194580
#
# Disc length: 2868 seconds
#
# Revision: 0
# Processed by: cddbd v1.5.1PL0 Copyright (c) Steve Scherf et al.
# Submitted via: CDex 1.51
#
DISCID=6f0b3209
DTITLE=TRINITY - Just the way to love
DYEAR=2000
DGENRE=JPop
TTITLE0=Just the way to love [D-Z ZERO WIZARD MIX: RADIO EDIT]
TTITLE1=Just the way to love [ORIGINAL MIX]
TTITLE2=face [ORIGINAL MIX]
TTITLE3=face [baby steppers TRIPLE STEPPIN' MIX]
TTITLE4=face [Masters Of Funk Remix]
TTITLE5=Just the way to love [Pete Hammond 80's style re-mix]
TTITLE6=Just the way to love [D-Z ZERO WIZARD MIX]
TTITLE7=Just the way to love [Instrumental]
TTITLE8=face [Instrumental]
EXTD=YEAR: 2000
EXTT0=
EXTT1=
EXTT2=
EXTT3=
EXTT4=
EXTT5=
EXTT6=
EXTT7=
EXTT8=
PLAYORDER=
